<?xml version="1.0" ?>
<svg xmlns="http://www.w3.org/2000/svg" width="400" height="400" viewBox="0 0 400 400">
  <defs>
    <radialGradient id="semiTransparentWhite" cx="50%" cy="50%" r="50%">
      <stop offset="0%" stop-color="white" stop-opacity="0.5"/>
      <stop offset="100%" stop-color="white" stop-opacity="0.5"/>
    </radialGradient>
  </defs>
  <path d="M 350.00 200.00 L 339.81 207.33 L 349.18 215.68 L 338.28 221.90 L 346.72 231.19 L 335.23 236.23 L 342.66 246.35 L 330.70 250.17 L 337.03 261.01 L 324.74 263.56 L 329.90 275.00 L 317.41 276.25 L 321.35 288.17 L 308.80 288.10 L 311.47 300.37 L 298.99 298.99 L 300.37 311.47 L 288.10 308.80 L 288.17 321.35 L 276.25 317.41 L 275.00 329.90 L 263.56 324.74 L 261.01 337.03 L 250.17 330.70 L 246.35 342.66 L 236.23 335.23 L 231.19 346.72 L 221.90 338.28 L 215.68 349.18 L 207.33 339.81 L 200.00 350.00 L 192.67 339.81 L 184.32 349.18 L 178.10 338.28 L 168.81 346.72 L 163.77 335.23 L 153.65 342.66 L 149.83 330.70 L 138.99 337.03 L 136.44 324.74 L 125.00 329.90 L 123.75 317.41 L 111.83 321.35 L 111.90 308.80 L 99.63 311.47 L 101.01 298.99 L 88.53 300.37 L 91.20 288.10 L 78.65 288.17 L 82.59 276.25 L 70.10 275.00 L 75.26 263.56 L 62.97 261.01 L 69.30 250.17 L 57.34 246.35 L 64.77 236.23 L 53.28 231.19 L 61.72 221.90 L 50.82 215.68 L 60.19 207.33 L 50.00 200.00 L 60.19 192.67 L 50.82 184.32 L 61.72 178.10 L 53.28 168.81 L 64.77 163.77 L 57.34 153.65 L 69.30 149.83 L 62.97 138.99 L 75.26 136.44 L 70.10 125.00 L 82.59 123.75 L 78.65 111.83 L 91.20 111.90 L 88.53 99.63 L 101.01 101.01 L 99.63 88.53 L 111.90 91.20 L 111.83 78.65 L 123.75 82.59 L 125.00 70.10 L 136.44 75.26 L 138.99 62.97 L 149.83 69.30 L 153.65 57.34 L 163.77 64.77 L 168.81 53.28 L 178.10 61.72 L 184.32 50.82 L 192.67 60.19 L 200.00 50.00 L 207.33 60.19 L 215.68 50.82 L 221.90 61.72 L 231.19 53.28 L 236.23 64.77 L 246.35 57.34 L 250.17 69.30 L 261.01 62.97 L 263.56 75.26 L 275.00 70.10 L 276.25 82.59 L 288.17 78.65 L 288.10 91.20 L 300.37 88.53 L 298.99 101.01 L 311.47 99.63 L 308.80 111.90 L 321.35 111.83 L 317.41 123.75 L 329.90 125.00 L 324.74 136.44 L 337.03 138.99 L 330.70 149.83 L 342.66 153.65 L 335.23 163.77 L 346.72 168.81 L 338.28 178.10 L 349.18 184.32 L 339.81 192.67 Z" fill="url(#semiTransparentWhite)"/>
</svg>
